<?xml version="1.0" encoding="utf-8"?>
<svg xmlns="http://www.w3.org/2000/svg" fill="none" height="112" viewBox="0 0 112 112" width="112">
<g clip-path="url(#clip0_2836_247516)">
<rect fill="white" height="112" width="112"/>
<path d="M0 112H112V0H0V112Z" fill="#006FCF"/>
<path d="M40.5723 94.2771L84.8582 94.3711L91.8134 86.6117L98.8183 94.3418H112V83.021L103.744 74.1178L112 65.2953V54.2099L40.5723 54.1457V94.2771Z" fill="white"/>
<path clip-rule="evenodd" d="M45.3418 89.8789V58.5636H71.8941V65.7775H53.9386V70.6743H71.466V77.7685H53.9386V82.5783H71.8941V89.8788L45.3418 89.8789Z" fill="#006FCF" fill-rule="evenodd"/>
<path d="M101.115 58.564L92.1118 68.4895L83.134 58.564H71.7617L86.4543 74.2034L71.762 89.8789H82.825L91.8685 79.854L101.006 89.8789H111.999V89.4343L97.6191 74.2034L111.999 58.8107V58.564H101.115Z" fill="#006FCF"/>
<path d="M95.7669 18.5247L92.089 28.8129L88.4234 18.5247H67.1674V32.2564L61.1198 18.5247H43.9021L26.2188 58.6562H111.998V18.5247H95.7669Z" fill="white"/>
<path clip-rule="evenodd" d="M48.3583 40.8884L52.5253 30.928L56.6894 40.8884H48.3583ZM47.1642 22.8871L33.2695 54.1758H42.7997L45.4208 47.9105H59.625L62.2444 54.1758H72.0113L58.1743 22.8871H47.1642Z" fill="#006FCF" fill-rule="evenodd"/>
<path d="M71.8809 54.1691L80.3064 54.1692V32.677L88.2999 54.1692H95.8726L103.704 32.75V54.2422L112 54.1692V22.8806H99.1073L92.1696 42.1623L85.2771 22.9268L71.8809 22.8805V54.1691Z" fill="#006FCF"/>
</g>
<defs>
<clipPath id="clip0_2836_247516">
<rect fill="white" height="112" width="112"/>
</clipPath>
</defs>
</svg>