<?xml version="1.0" encoding="utf-8"?>
<svg xmlns="http://www.w3.org/2000/svg" fill="none" height="112" viewBox="0 0 112 112" width="112">
<path d="M112 0H0V112H112V0Z" fill="black"/>
<path clip-rule="evenodd" d="M102.82 56.1076L103 103H56H9V56.4027C9 30.7737 9.21253 9.59031 9.47276 9.32842C9.73228 9.06583 30.8015 8.93347 56.2925 9.03327L102.639 9.21518L102.82 56.1076ZM16.0142 26.2026V36.4659H24.0805H32.1468V26.2026V15.9394H24.0805H16.0142V26.2026ZM39.8624 26.2026V36.4659H67.9192H95.976V26.2026V15.9394H67.9192H39.8624V26.2026ZM16.3277 44.4478C16.1348 44.9553 16.064 50.4536 16.1713 56.6668L16.3649 67.9634H40.9146H65.4642V55.9306V43.8979L41.0717 43.7117C21.5414 43.5624 16.609 43.7096 16.3277 44.4478ZM72.8292 55.9129V68.3173H84.4194H96.0089L95.8175 56.1076L95.6253 43.8979L84.2272 43.7032L72.8292 43.5086V55.9129ZM16.0142 85.6587V95.9219H29.6919H43.3695V85.6587V75.3954H29.6919H16.0142V85.6587ZM50.3837 85.6587V95.9219H73.1799H95.976V85.6587V75.3954H73.1799H50.3837V85.6587Z" fill="#95C5E9" fill-rule="evenodd"/>
</svg>