<?xml version="1.0" encoding="utf-8"?>
<svg xmlns="http://www.w3.org/2000/svg" fill="none" height="34" viewBox="0 0 94 34" width="94">
<g clip-path="url(#clip0_2836_247488)">
<rect fill="white" height="33.7436" transform="translate(0 0.128906)" width="94"/>
<path d="M63.7992 24.5211H63.7768C59.7739 27.3536 55.0514 30.3211 49.9466 33.4459L49.7442 33.5583C49.6543 33.5808 49.6318 33.6932 49.6543 33.7606C49.6768 33.8506 49.7892 33.8731 49.8567 33.8506C49.8791 33.8506 49.9016 33.8281 49.9241 33.8056L50.0815 33.7157C54.4217 31.4676 59.3916 28.7924 64.3839 26.0273L64.4739 25.9823C64.1815 25.5327 63.9342 25.0381 63.7992 24.5211ZM90.0653 3.25428C83.7686 -3.69226 43.1552 2.55738 25.9069 6.33415L25.5021 6.42407C25.4122 6.44655 25.3672 6.51399 25.3672 6.60391C25.3672 6.67136 25.4347 6.7388 25.5246 6.71632H25.5471L25.9519 6.64888C40.2543 4.10855 70.0059 0.579076 76.3925 6.91864C78.349 8.85199 77.8992 11.3474 75.6279 14.2923C76.8873 15.1016 77.7643 16.383 78.1016 17.8443C86.9394 11.9768 92.8763 6.35663 90.0653 3.25428Z" fill="#CC2427"/>
<path d="M66.3614 22.697C66.4289 25.1474 67.9806 27.1482 70.0045 27.1482C73.9174 27.1482 75.5815 22.3373 75.4691 19.1226C75.3791 16.6722 73.805 14.6714 71.7811 14.6714C68.4078 14.6714 66.2265 19.4598 66.3614 22.697ZM64.2925 22.5621C64.1351 18.3807 67.4184 14.1094 72.1633 14.1094C75.3566 14.1094 77.4255 16.245 77.538 19.4823C77.6954 23.8885 74.637 27.935 69.6672 27.935C66.4739 27.935 64.405 25.8218 64.2925 22.5621Z" fill="#013D5B"/>
<path d="M19.2281 21.4629C19.0257 21.5528 18.8008 21.5978 18.5759 21.6428L17.0917 21.9125C16.7319 21.935 16.3721 22.0474 16.0572 22.2273C15.8773 22.3397 15.7424 22.5195 15.7199 22.7443C15.675 22.9466 15.7649 23.149 15.9448 23.2614C16.2372 23.4187 16.552 23.4862 16.8893 23.4637C17.2266 23.4637 17.5639 23.3962 17.8788 23.3063C18.1711 23.2164 18.441 23.0815 18.6883 22.8792C18.8458 22.7443 18.9582 22.5645 19.0257 22.3621C19.1381 22.0699 19.2056 21.7776 19.2281 21.4629ZM23.3659 18.9001C23.3434 19.2823 23.2759 19.6195 23.186 20.204L22.4888 24.1156C22.4214 24.4304 22.5788 24.7676 22.8711 24.9249V25.0823H18.8458V24.0932C18.2386 24.4304 17.5864 24.7001 16.9118 24.9025C16.2821 25.0598 15.6525 25.1497 15.0003 25.1497C13.696 25.1497 12.9539 25.0149 12.4592 24.5652C11.9644 24.1156 11.6721 23.8009 11.6946 23.149C11.7395 22.7218 11.9194 22.3172 12.1893 22.0024C12.4817 21.6652 12.8415 21.4179 13.2462 21.2381C13.7635 21.0133 14.3032 20.8784 14.8654 20.7885C15.5625 20.6761 16.552 20.5637 17.8788 20.4513C18.3285 20.4288 18.7783 20.3389 19.1831 20.159C19.4754 20.0466 19.5654 19.9342 19.6104 19.7094C19.6553 19.4846 19.5654 19.0799 19.0257 18.9675C17.5864 18.6978 14.8879 19.1474 13.4936 19.5071L14.2357 17.4613C16.0123 17.1691 17.8113 17.0342 19.6104 17.0117C22.4663 17.0117 23.3883 17.8435 23.3659 18.9001Z" fill="#013D5B"/>
<path d="M34.9688 25.0828L36.363 17.237H40.2085L38.8142 25.0828H34.9688ZM36.5879 15.4385C36.7003 14.7866 37.7123 14.2695 38.8592 14.2695C40.0061 14.2695 40.8156 14.7866 40.7032 15.4385C40.5908 16.0905 39.5788 16.6075 38.4319 16.6075C37.285 16.6075 36.4754 16.068 36.5879 15.4385Z" fill="#013D5B"/>
<path d="M53.8142 21.4854L53.162 21.6652L51.6553 21.935C51.2955 21.9575 50.9582 22.0699 50.6434 22.2497C50.4635 22.3621 50.3285 22.542 50.3061 22.7443C50.2611 22.9466 50.3285 23.1714 50.5085 23.2838C50.7108 23.4187 51.0257 23.4637 51.4754 23.4637C51.8128 23.4637 52.1501 23.4187 52.4649 23.3288C52.7573 23.2389 53.0271 23.104 53.2745 22.9017C53.4319 22.7668 53.5443 22.5869 53.6118 22.3846C53.7018 22.0924 53.7692 21.8001 53.8142 21.4854ZM57.952 18.9001C57.9295 19.2823 57.862 19.642 57.7721 20.204L57.075 24.1381C57.0075 24.4528 57.1649 24.7901 57.4573 24.9474V25.0823H53.4319V24.0707C52.8247 24.4304 52.1726 24.7001 51.4979 24.9025C50.8683 25.0598 50.2161 25.1497 49.564 25.1273C48.2821 25.1273 47.54 24.9924 47.0228 24.5428C46.5056 24.0932 46.2582 23.7784 46.2807 23.149C46.3257 22.7218 46.5056 22.3172 46.7754 21.98C47.0678 21.6652 47.4276 21.3955 47.8324 21.2381C48.3496 21.0133 48.8668 20.8559 49.429 20.7885C50.1486 20.6761 51.1381 20.5637 52.4649 20.4513C52.9147 20.4063 53.3419 20.3164 53.7692 20.159C54.0391 20.0466 54.1515 19.9342 54.1965 19.7094C54.2415 19.4846 54.1515 19.0799 53.6118 18.9675C52.1726 18.6753 49.474 19.1474 48.0797 19.4846L48.8219 17.4613C50.5984 17.1691 52.3974 17.0342 54.1965 17.0117C57.0525 17.0342 57.9745 17.866 57.952 18.9001Z" fill="#013D5B"/>
<path d="M11.1541 22.2709C10.0971 22.4957 9.0402 22.6082 7.96077 22.6082C6.13924 22.6082 4.67752 21.7089 4.76747 20.0229C4.81244 18.9213 6.13924 16.5833 9.46747 16.5833C10.5244 16.5608 11.5589 16.8306 12.4584 17.3926L12.9306 14.6725C11.7388 14.2004 10.4345 13.9756 9.15264 14.043C4.76747 14.088 0.562205 16.0663 0.0449796 20.1128C-0.472245 24.1593 4.54259 25.2609 6.7689 25.2609C8.05072 25.2609 9.4 25.1934 10.6368 25.081L11.1541 22.2709Z" fill="#013D5B"/>
<path d="M42.3225 17.1926L42.5923 15.5965L46.5952 14.7422L46.1679 17.1926H48.1469L47.7646 18.7887H45.8531L44.7062 25.0833H40.8158L41.9852 18.7887H40.5234L40.8158 17.2151L42.3225 17.1926Z" fill="#013D5B"/>
<path d="M61.8426 25.0819H57.9297L59.9086 14.1562L63.7091 14.2462L61.8426 25.0819Z" fill="#013D5B"/>
<path d="M29.9098 19.0788C29.4151 19.0788 28.9428 19.2362 28.538 19.5284C28.1332 19.8657 27.8634 20.3602 27.7959 20.8773C27.661 21.5742 27.7285 22.0463 27.9983 22.361C28.3131 22.6757 28.7404 22.8331 29.1902 22.8106C29.5275 22.8106 29.8648 22.7432 30.1797 22.6083C30.472 22.4734 30.7419 22.2486 30.9218 21.9788C31.1241 21.6641 31.2816 21.3044 31.349 20.9447C31.4615 20.3153 31.3715 19.8657 31.0792 19.5509C30.7643 19.2362 30.3371 19.0564 29.9098 19.0788ZM22.916 27.8014L24.7825 17.2804H28.1557L27.8859 18.6292C28.2457 18.1571 28.7404 17.8199 29.3026 17.6176C29.9997 17.3253 30.7419 17.1904 31.484 17.168C32.361 17.168 32.9007 17.2129 33.5529 17.5501C34.16 17.8649 34.6548 18.3819 34.9021 19.0339C35.172 19.7083 35.2395 20.4502 35.082 21.1695C34.9021 22.406 34.205 23.53 33.1931 24.2494C32.1586 24.9913 31.2366 25.1936 29.9098 25.1936C29.505 25.1936 29.1002 25.1486 28.7179 25.0587C28.4481 24.9913 28.2007 24.9013 27.9533 24.7665C27.7285 24.6091 27.5036 24.4068 27.3237 24.182L26.694 27.8014H22.916Z" fill="#013D5B"/>
<path d="M92.5381 20.0453C92.5157 19.4158 92.2008 18.9887 91.5487 18.9887C89.9745 18.9887 88.3104 22.0685 88.0181 23.305C90.5817 23.305 92.6056 21.7763 92.5381 20.0453ZM92.8755 24.8786L93.1678 25.081C92.4032 26.6321 90.8515 27.891 89.0075 27.891C87.5008 27.891 86.2865 26.9019 86.219 25.036C86.0841 21.6639 89.2549 18.5391 91.8185 18.5391C92.9204 18.5391 93.9549 19.0336 93.9999 20.2251C94.0898 22.9003 90.3343 23.7096 87.8606 23.7546C87.7707 24.0693 87.7482 24.4065 87.7707 24.7437C87.8157 25.8678 88.4903 26.7895 89.8621 26.7895C91.2338 26.7895 92.2683 25.8228 92.8755 24.8786Z" fill="#013D5B"/>
<path d="M77.4935 19.9553L78.3705 19.8654C78.6628 19.8654 78.9102 19.9329 78.9327 20.2026C78.9552 20.4724 78.6404 21.5515 78.5729 21.8437L77.9657 24.474C77.7408 25.5531 77.471 26.6771 77.2461 27.5763H78.7753L79.6298 23.3949C82.2834 20.6523 83.2954 19.753 83.9026 19.753C84.1499 19.7305 84.3748 19.9104 84.3973 20.1577C84.3973 20.1802 84.3973 20.2251 84.3973 20.2476C84.4198 20.7197 84.1049 21.8213 84.015 22.136L83.1155 25.1709C82.9356 25.8678 82.7782 26.4748 82.8006 26.9244C82.8231 27.374 83.2279 27.891 83.8126 27.891C84.937 27.891 85.7691 26.722 86.4662 25.5755L86.2638 25.1934C85.9715 25.643 85.3193 26.6546 84.7796 26.6546C84.6222 26.6546 84.4648 26.5422 84.4648 26.2724C84.4872 25.8453 84.5547 25.4406 84.6896 25.036L85.6791 21.4616C85.9265 20.4724 86.0614 19.8429 86.0614 19.5057C86.0614 19.1685 85.6341 18.5391 85.0494 18.5391C84.0375 18.5391 82.6882 19.2809 79.8547 22.5406H79.8097L80.1695 20.9445C80.3719 20.0678 80.5518 19.1685 80.7317 18.5391C79.6748 18.9212 78.5729 19.236 77.471 19.4608L77.4935 19.9553Z" fill="#013D5B"/>
</g>
<defs>
<clipPath id="clip0_2836_247488">
<rect fill="white" height="33.7436" transform="translate(0 0.128906)" width="94"/>
</clipPath>
</defs>
</svg>