<?xml version="1.0" encoding="utf-8"?>
<svg xmlns="http://www.w3.org/2000/svg" fill="none" height="42" viewBox="0 0 72 42" width="72">
<mask height="42" id="mask0_2836_247472" maskUnits="userSpaceOnUse" style="mask-type:luminance" width="72" x="0" y="0">
<path d="M71.2356 0.640625H0.763672V41.3632H71.2356V0.640625Z" fill="white"/>
</mask>
<g mask="url(#mask0_2836_247472)">
<path d="M0.824219 28.2677C0.824219 21.001 6.77406 15.3438 14.5284 15.3438C19.0152 15.3438 23.1118 17.3433 25.4528 20.367L22.0876 23.732C21.1951 22.5893 20.0563 21.6626 18.7559 21.0208C17.4556 20.3791 16.0271 20.0389 14.5772 20.0256C9.94404 20.0256 6.23759 23.4883 6.23759 28.2677C6.23759 33.0959 9.94404 36.5584 14.5772 36.5584C16.0791 36.5567 17.5603 36.208 18.9053 35.5397C20.2503 34.8714 21.4229 33.9015 22.3315 32.7056L25.6478 35.9733C23.4044 39.1432 19.1127 41.2403 14.5284 41.2403C6.77406 41.2403 0.824219 35.583 0.824219 28.2677Z" fill="#255BE3"/>
<path d="M30.0371 16.2227H35.353V40.3636H30.0371V16.2227Z" fill="#255BE3"/>
<path d="M45.2528 33.8758V20.7082H39.4492V16.2214H45.4966V11.0517L50.4711 8.61328V16.2214H58.3718V20.7082H50.4711V32.9981C50.4711 35.4365 51.8367 36.5095 54.4215 36.5095C55.7664 36.5164 57.097 36.2336 58.323 35.6803V40.2647C56.7869 40.9386 55.123 41.2715 53.4461 41.24C48.7154 41.24 45.2528 38.6553 45.2528 33.8758Z" fill="#255BE3"/>
<path d="M62.5664 16.2227H67.8823V40.3636H62.5664V16.2227Z" fill="#255BE3"/>
<path d="M48.9107 0.859453C53.2765 0.849008 57.5809 1.88935 61.46 3.89251C65.3392 5.8958 68.6793 8.80315 71.1984 12.369H65.0047C62.9745 10.1125 60.4926 8.30821 57.72 7.07306C54.9473 5.83791 51.946 5.19964 48.9107 5.19964C45.8755 5.19964 42.874 5.83791 40.1014 7.07306C37.3287 8.30821 34.8469 10.1125 32.8168 12.369H26.623C29.142 8.80315 32.4823 5.8958 36.3614 3.89251C40.2406 1.88935 44.5448 0.849008 48.9107 0.859453Z" fill="#FF3C28"/>
</g>
</svg>