<?xml version="1.0" encoding="utf-8"?>
<svg xmlns="http://www.w3.org/2000/svg" fill="none" height="100" viewBox="0 0 100 100" width="100">
<g clip-path="url(#clip0_1864_172219)">
<path clip-rule="evenodd" d="M25.3179 32.7773C28.5322 32.7773 31.5084 33.6504 34.0878 35.1583L30.1592 40.9916C28.7306 40.198 27.064 39.7615 25.3179 39.7615C19.6433 39.7615 15.0798 44.3646 15.0798 49.9996C15.0798 55.6345 19.683 60.2377 25.3179 60.2377C28.0163 60.2377 30.5163 59.1662 32.3417 57.4599V53.69H25.5957V46.7059H38.3338V47.0234H39.2862V59.7615L39.4052 59.9202C36.2703 64.325 31.1513 67.2218 25.3179 67.2218C15.7941 67.2218 8.0957 59.5234 8.0957 49.9996C8.0957 40.4758 15.7941 32.7773 25.3179 32.7773Z" fill="white" fill-rule="evenodd"/>
<path clip-rule="evenodd" d="M51.0718 32.7773C60.5956 32.7773 68.2941 40.4758 68.2941 49.9996C68.2941 59.5234 60.5956 67.2218 51.0718 67.2218C41.548 67.2218 33.8496 59.5234 33.8496 49.9996C33.8496 40.4758 41.548 32.7773 51.0718 32.7773ZM51.0718 39.7615C56.7464 39.7615 61.3099 44.3646 61.3099 49.9996C61.3099 55.6345 56.7068 60.2377 51.0718 60.2377C45.3972 60.2377 40.8337 55.6345 40.8337 49.9996C40.8337 44.3646 45.3972 39.7615 51.0718 39.7615Z" fill="white" fill-rule="evenodd"/>
<path clip-rule="evenodd" d="M61.3892 32.7773C70.913 32.7773 78.6114 40.4758 78.6114 49.9996C78.6114 59.5234 70.913 67.2218 61.3892 67.2218C51.8654 67.2218 44.167 59.5234 44.167 49.9996C44.167 46.5472 45.1987 43.3329 46.9448 40.6345C48.2146 40.0789 49.6035 39.7615 51.0718 39.7615C52.9368 39.7615 54.7225 40.2773 56.2305 41.1504C53.1749 42.9361 51.1511 46.2297 51.1511 49.9996C51.1511 55.6742 55.7543 60.2377 61.3892 60.2377C67.0638 60.2377 71.6273 55.6345 71.6273 49.9996C71.6273 45.8329 69.1273 42.2218 65.5162 40.6345C63.3733 37.3012 60.0797 34.7615 56.2305 33.571C57.8575 33.0551 59.5638 32.7773 61.3892 32.7773Z" fill="#FFB171" fill-rule="evenodd"/>
<path clip-rule="evenodd" d="M73.2549 32.7773H80.1993V67.2218H73.2549V32.7773Z" fill="white" fill-rule="evenodd"/>
<path clip-rule="evenodd" d="M73.2549 67.2224V60.2383H91.9057V67.2224H73.2549Z" fill="white" fill-rule="evenodd"/>
</g>
<defs>
<clipPath id="clip0_1864_172219">
<rect fill="white" height="100" width="100"/>
</clipPath>
</defs>
</svg>