<?xml version="1.0" encoding="utf-8"?>
<svg xmlns="http://www.w3.org/2000/svg" fill="none" height="100" viewBox="0 0 100 100" width="100">
<path d="M92.0236 40.2786C90.7537 41.7865 89.722 43.1754 88.5315 44.4056C87.341 45.6357 85.7934 46.1119 84.1267 46.1516C81.7061 46.1913 79.2855 46.35 76.9045 46.1516C74.722 45.9532 73.4125 46.7865 72.3807 48.7706C75.7537 48.7706 79.1267 48.7706 82.6585 48.7706C80.6347 51.7072 78.4918 53.9294 74.7617 53.6516C73.849 53.5722 72.9363 53.7706 72.0632 53.6119C69.8807 53.2548 68.3728 54.0484 67.1823 55.9135C65.3569 58.85 62.6188 59.723 59.2458 59.723C42.5394 59.6437 25.7934 59.6833 9.08705 59.6833C8.80928 59.6833 8.49182 59.6833 8.21404 59.6833C8.13467 59.5643 8.05531 59.4849 8.01562 59.3659C10.0394 57.5802 11.8648 55.5564 14.1267 54.1675C15.4759 53.3341 17.4601 53.2945 19.1664 53.2548C32.3013 53.1754 45.4363 53.1754 58.5712 53.2548C60.714 53.2548 62.1823 52.6198 63.5315 50.9532C65.8331 48.0564 68.3331 45.3183 70.714 42.5008C71.9045 41.1119 73.3728 40.1992 75.1982 40.1992C80.6744 40.2389 86.1902 40.2786 92.0236 40.2786Z" fill="#001547"/>
</svg>