<?xml version="1.0" encoding="utf-8"?>
<svg xmlns="http://www.w3.org/2000/svg" fill="none" height="100" viewBox="0 0 100 100" width="100">
<g clip-path="url(#clip0_1864_172162)">
<path d="M15.238 43.2149H18.0952V58.5721C18.0952 60.953 16.3491 62.58 13.9285 62.58H12.8174V59.8816H13.6507C14.6428 59.8816 15.238 59.4451 15.238 58.3736V43.2149ZM15.238 37.4609H18.0952V40.3181H15.238V37.4609Z" fill="#000063"/>
<path d="M22.8171 49.0468C22.8568 46.8642 24.1266 45.7134 25.833 45.7134C27.5393 45.7134 28.7695 46.8642 28.8488 49.0468H22.8171ZM31.706 51.4277V49.0864C31.706 45.396 28.9679 43.0547 25.833 43.0547C23.0949 43.0547 19.96 44.8404 19.96 50.396C19.96 56.2293 23.3727 57.6579 26.2695 57.6579C28.1742 57.6579 29.9996 56.9833 31.4282 55.3563L29.3647 53.5706C28.5314 54.4436 27.3409 54.9594 26.2298 54.9594C24.2457 54.9594 22.8171 53.769 22.8171 51.4277H31.706Z" fill="#000063"/>
<path d="M33.9686 38.8906H36.8258V43.216H38.8892V45.3986H36.8258V53.6922C36.8258 54.4859 37.1432 54.7636 37.8178 54.7636H38.8892V57.4621H37.3813C35.3972 57.4621 33.9289 56.1922 33.9289 53.9303V45.3986H32.54V43.216H33.9686V38.8906Z" fill="#000063"/>
<path d="M48.4523 48.5714C50.7142 48.5714 51.7063 50 51.7063 51.5873C51.7063 53.1746 50.7142 54.6032 48.4523 54.6032H43.7698V48.5714H48.4523ZM40.7539 57.4603H49.2063C52.2222 57.4603 54.7618 55.2381 54.7618 51.7857C54.7618 49.7619 53.6904 47.6984 51.5079 47.1825V47.1429C53.8491 46.1111 54.4444 44.4841 54.4444 42.8571C54.4444 39.7222 52.4206 37.5 48.5317 37.5H40.7539V57.4603ZM48.1745 40.1587C50.3571 40.1587 51.3888 41.4683 51.3888 43.0159C51.3888 44.6032 50.3571 45.873 48.1745 45.873H43.8095V40.119H48.1745V40.1587Z" fill="#000063"/>
<path d="M56.3887 37.4609H59.2458V53.8101C59.2458 54.4451 59.603 54.8022 60.3172 54.8022H61.3093V57.5006H60.0395C57.976 57.5006 56.3887 56.5879 56.3887 54.0482V37.4609Z" fill="#000063"/>
<path d="M62.5 43.2148H65.3571V51.7069C65.3571 53.6514 66.5476 54.7625 68.2143 54.7625C69.8016 54.7625 71.0317 53.6514 71.0317 51.7069V43.2148H73.8889V57.4609H71.0317V55.9529H70.9921C70.0794 57.064 68.8095 57.6593 67.3016 57.6593C65.0397 57.6593 62.5397 55.9529 62.5397 52.699V43.2148H62.5Z" fill="#000063"/>
<path d="M78.2937 49.0468C78.3333 46.8642 79.6032 45.7134 81.3095 45.7134C82.9762 45.7134 84.246 46.8642 84.3254 49.0468H78.2937ZM87.1826 51.4277V49.0864C87.1826 45.396 84.4445 43.0547 81.3095 43.0547C78.5714 43.0547 75.4365 44.8404 75.4365 50.396C75.4365 56.2293 78.8492 57.6579 81.746 57.6579C83.6508 57.6579 85.4762 56.9833 86.9048 55.3563L84.8413 53.5706C84.008 54.4436 82.8175 54.9594 81.7064 54.9594C79.7222 54.9594 78.2937 53.769 78.2937 51.4277H87.1826Z" fill="#000063"/>
</g>
<defs>
<clipPath id="clip0_1864_172162">
<rect fill="white" height="100" width="100"/>
</clipPath>
</defs>
</svg>