<svg width="37" height="24" viewBox="0 0 37 24" fill="none" xmlns="http://www.w3.org/2000/svg">
<path d="M8.93516 4.92882C10.9299 4.60976 12.8034 5.24355 13.58 5.43377L21.8723 7.46558C20.1686 8.1177 20.7027 9.38394 21.5946 10.9752L26.9049 22.7184C27.1393 23.2367 26.7126 23.8251 26.1478 23.7583C24.7889 23.5968 22.6428 23.2844 19.2047 22.4211C18.2365 22.178 17.4041 21.5522 16.8969 20.6925L14.1862 16.0972L2.28505 12.4406C1.36053 12.1745 0.518252 11.5837 0.195785 10.6773C-1.02728 7.23891 3.83851 6.25012 5.32844 5.82752C5.58471 5.75482 5.83641 5.66449 6.09559 5.60296L8.93516 4.92882ZM32.3991 0.370843C32.7107 0.0537475 33.1685 -0.0718217 33.5982 0.0419975L35.6505 0.585728C36.5796 0.83187 37.1354 1.78203 36.8954 2.7127L35.5969 7.5823C35.1632 9.2641 34.7296 10.9459 33.0479 10.5125L21.8742 7.46264L27.0193 5.21145C27.7424 4.89503 28.3983 4.44289 28.9514 3.87992L32.3991 0.370843Z" fill="#FFFFFF"/>
</svg>
