<?xml version="1.0" encoding="utf-8"?>
<svg xmlns="http://www.w3.org/2000/svg" fill="none" height="100" viewBox="0 0 100 100" width="100">
<g clip-path="url(#clip0_1864_172132)">
<mask height="70" id="mask0_1864_172132" maskUnits="userSpaceOnUse" style="mask-type:luminance" width="70" x="15" y="15">
<path d="M84.325 15.7148H15.7139V84.326H84.325V15.7148Z" fill="white"/>
</mask>
<g mask="url(#mask0_1864_172132)">
<path d="M79.6028 50.6767C79.7218 51.1132 79.6028 51.8671 78.8488 52.0656C78.2139 52.2243 77.5789 52.3433 76.944 52.383C75.8726 52.5021 75.9123 53.4148 75.9123 53.891V60.3592C75.9123 61.2322 75.198 64.2481 71.7853 64.2481H63.9282C60.952 64.2481 58.6107 61.7878 58.6107 59.0894V43.7322C58.5313 41.0735 60.952 39.2878 63.1345 39.3671C64.2059 39.3671 64.9599 39.6846 65.5551 40.0021C66.825 40.5576 68.2139 41.2719 70.0789 42.1449C70.0789 42.1449 72.9758 40.0418 73.1742 39.9227C74.2059 39.2084 75.1583 39.7243 75.4758 40.3592C76.5075 42.4227 78.5313 46.7481 79.6028 50.6767ZM84.2853 39.1687C84.325 36.6687 83.3726 34.2878 81.6663 32.5021C79.9599 30.7164 77.5789 29.6846 75.1186 29.6449C70.2377 29.5259 67.4996 31.3116 66.4678 31.7878C66.3885 31.8672 66.2694 31.7878 66.1504 31.6687C65.2774 30.7957 63.2932 29.4465 61.1504 28.8116C60.8329 28.7322 60.7536 28.256 61.1504 28.256C64.6028 27.8989 68.1345 27.9783 71.5472 28.5735C71.944 28.6529 72.2615 28.3751 72.0631 28.0576C71.944 27.8195 71.8647 27.6608 71.6662 27.2243C71.2297 26.3513 70.1583 25.3989 68.7297 25.0021C65.1186 23.9703 58.8885 23.0973 53.2932 23.0973C47.0631 23.0179 40.4758 24.2878 38.8091 24.6846C38.4123 24.764 37.8567 24.9227 37.7377 24.9227C37.4202 24.9227 37.3012 25.3592 37.4996 25.5576L38.1345 26.1925C38.3329 26.4306 38.452 26.8275 38.0551 27.2243L26.5472 37.5814H34.4837C34.9996 37.5814 35.5155 38.0179 35.5155 38.6132C35.5155 39.1291 35.0789 39.6449 34.5631 39.6449H24.2853L21.1901 42.5021H34.6424C35.1583 42.5021 35.5948 43.0576 35.5948 43.5338C35.5948 43.9703 35.198 44.5656 34.6424 44.5656H18.8885L15.7139 47.5021H42.8964C43.4123 47.5021 43.8488 48.0576 43.8488 48.5338C43.8488 49.0894 43.452 49.6052 42.8964 49.6052H15.7139V52.4624H42.817C43.452 52.4624 43.7694 53.0179 43.7694 53.5338C43.7694 53.9703 43.3329 54.4862 42.7377 54.4862H15.7139V57.3433H51.1107C51.6662 57.3433 52.0631 57.8592 52.0631 58.4148C52.0631 58.9306 51.6266 59.4465 51.1107 59.4465H25.2377V62.3037H51.1901C51.7059 62.3037 52.0631 62.8592 52.0631 63.3751C52.0631 63.891 51.6266 64.4068 51.1901 64.4068L50.6742 64.3275H25.2377V67.1846H55.1186C55.1186 67.1846 56.1901 64.7243 56.1901 61.9068V42.6608C56.1901 41.1529 56.825 38.6132 59.9202 37.8989C59.9996 37.8989 60.1186 37.8195 60.1583 37.8195C68.9678 35.7164 78.0551 37.6211 83.2139 39.8433C84.2059 40.2005 84.3647 39.4465 84.2853 39.1687ZM34.7615 76.9465H40.7932C46.1901 76.8671 49.6821 74.0497 49.6821 74.0497H34.7615V76.9465ZM34.7615 71.9862H52.1028C52.9361 71.1529 53.9282 69.6846 54.2059 69.1291H34.7615V71.9862Z" fill="#000441"/>
</g>
</g>
<defs>
<clipPath id="clip0_1864_172132">
<rect fill="white" height="100" width="100"/>
</clipPath>
</defs>
</svg>