<svg width="151" height="30" viewBox="0 0 151 30" fill="none" xmlns="http://www.w3.org/2000/svg">
<path d="M2.87906 6.91211C2.97506 2.84811 6.17506 0.000108719 10.5271 0.000108719V2.49611C7.67906 2.49611 5.59906 4.25611 5.50306 6.91211H11.1991V9.21611H5.50306V22.9121H2.87906V9.21611H-0.000937462V6.91211H2.87906ZM12.7833 0.512108H15.4073V22.9121H12.7833V0.512108ZM17.7788 6.91211H20.4028V22.9121H17.7788V6.91211ZM19.0908 5.31211C18.1628 5.31211 17.4908 4.64011 17.4908 3.71211C17.4908 2.78411 18.1628 2.11211 19.0908 2.11211C20.0188 2.11211 20.6908 2.78411 20.6908 3.71211C20.6908 4.64011 20.0188 5.31211 19.0908 5.31211ZM39.0623 21.3121C39.0623 26.4961 35.7663 29.8241 30.8703 29.8241C27.4463 29.8241 24.4383 28.1601 22.9983 25.5041L25.3343 24.1601C26.2943 26.1121 28.4703 27.3281 30.8703 27.3281C34.1663 27.3281 36.4383 24.9601 36.4383 21.3121V20.9601C35.1903 22.5281 33.3023 23.4241 30.6463 23.4241C25.7183 23.4241 22.1343 19.8401 22.1343 14.9121C22.1343 9.98411 25.7183 6.40011 30.6463 6.40011C33.3023 6.40011 35.1903 7.29611 36.4383 8.86411V6.91211H39.0623V21.3121ZM30.6463 8.89611C27.2863 8.89611 24.8543 11.4241 24.8543 14.9121C24.8543 18.4001 27.2863 20.9281 30.6463 20.9281C34.0063 20.9281 36.4383 18.4001 36.4383 14.9121C36.4383 11.4241 34.0063 8.89611 30.6463 8.89611ZM41.4261 0.512108H44.0501V8.54411C45.1061 7.20011 46.7381 6.40011 49.0101 6.40011C53.0421 6.40011 55.9541 9.37611 55.9541 13.5681V22.9121H53.3301V13.5681C53.3301 10.6881 51.6981 8.83211 48.6901 8.83211C45.6821 8.83211 44.0501 10.6881 44.0501 13.5681V22.9121H41.4261V0.512108ZM59.3336 16.8321V9.21611H55.7816V6.91211H59.3336V2.97611H61.9576V6.91211H66.9816V9.21611H61.9576V16.8321C61.9576 19.5841 64.0696 20.9281 66.9816 20.9281V23.4241C62.5656 23.4241 59.3336 21.0241 59.3336 16.8321ZM68.5421 6.91211H71.1661V8.86411C72.4141 7.29611 74.3021 6.40011 76.9581 6.40011C81.8861 6.40011 85.4701 9.98411 85.4701 14.9121C85.4701 19.8401 81.8861 23.4241 76.9581 23.4241C74.3021 23.4241 72.4141 22.5281 71.1661 20.9601V29.3121H68.5421V6.91211ZM76.9581 8.89611C73.5981 8.89611 71.1661 11.4241 71.1661 14.9121C71.1661 18.4001 73.5981 20.9281 76.9581 20.9281C80.3181 20.9281 82.7501 18.4001 82.7501 14.9121C82.7501 11.4241 80.3181 8.89611 76.9581 8.89611ZM95.2578 6.40011C100.282 6.40011 103.962 9.98411 103.962 14.9121C103.962 19.8401 100.282 23.4241 95.2578 23.4241C90.2338 23.4241 86.5538 19.8401 86.5538 14.9121C86.5538 9.98411 90.2338 6.40011 95.2578 6.40011ZM95.2578 8.89611C91.8018 8.89611 89.2738 11.4241 89.2738 14.9121C89.2738 18.4001 91.8018 20.9281 95.2578 20.9281C98.7138 20.9281 101.242 18.4001 101.242 14.9121C101.242 11.4241 98.7138 8.89611 95.2578 8.89611ZM105.689 6.91211H108.313V22.9121H105.689V6.91211ZM107.001 5.31211C106.073 5.31211 105.401 4.64011 105.401 3.71211C105.401 2.78411 106.073 2.11211 107.001 2.11211C107.929 2.11211 108.601 2.78411 108.601 3.71211C108.601 4.64011 107.929 5.31211 107.001 5.31211ZM110.685 6.91211H113.309V8.54411C114.365 7.20011 115.997 6.40011 118.269 6.40011C122.301 6.40011 125.213 9.37611 125.213 13.5681V22.9121H122.589V13.5681C122.589 10.6881 120.957 8.83211 117.949 8.83211C114.941 8.83211 113.309 10.6881 113.309 13.5681V22.9121H110.685V6.91211ZM128.592 16.8321V9.21611H125.04V6.91211H128.592V2.97611H131.216V6.91211H136.24V9.21611H131.216V16.8321C131.216 19.5841 133.328 20.9281 136.24 20.9281V23.4241C131.824 23.4241 128.592 21.0241 128.592 16.8321ZM137.04 10.9121C137.04 8.16011 139.6 6.40011 143.568 6.40011C147.536 6.40011 150.096 8.16011 150.096 10.9121H147.376C147.376 9.56811 145.872 8.70411 143.568 8.70411C141.264 8.70411 139.76 9.56811 139.76 10.9121C139.76 14.6241 150.48 12.4161 150.48 18.6881C150.48 21.5681 147.792 23.4241 143.664 23.4241C139.536 23.4241 136.848 21.5681 136.848 18.6881H139.568C139.568 20.1601 141.168 21.1201 143.664 21.1201C146.16 21.1201 147.76 20.1601 147.76 18.6881C147.76 14.9761 137.04 17.1841 137.04 10.9121Z" fill="#FFFFFF"/>
</svg>
