<?xml version="1.0" encoding="utf-8"?>
<svg xmlns="http://www.w3.org/2000/svg" fill="none" height="112" viewBox="0 0 112 112" width="112">
<path d="M112 0H0V112H112V0Z" fill="#D71E28"/>
<path d="M67.785 44.7809H65.9555L65.7566 45.6752C65.2528 47.9435 64.5369 48.6434 62.8532 48.6434H59.3134V35.2672H61.7263V33.0508H53.3608V35.2672H55.5218V48.6434H53.3608V50.8598H67.7718V44.7809M16.0407 50.8598L11.5597 35.2672H9.53125V33.0508H17.8172V35.2672H15.4309L18.4006 45.9993L21.9669 33.0508H25.6259L29.2585 46.0252L32.1884 35.2672H29.696V33.0508H51.2661V38.8186H49.4366L49.2509 38.1317C48.6941 35.993 48.1108 35.2542 46.4006 35.2542H42.1847V40.6203H47.3021C47.5009 41.048 47.5805 41.3591 47.5805 41.8387C47.5805 42.3441 47.5009 42.6811 47.3021 43.1089H42.1847V48.6305H46.5862C48.2434 48.6305 48.9725 47.9176 49.4896 45.6623L49.6884 44.7679H51.518V50.8469H36.232V48.6305H38.393V35.2672H34.8797L30.4252 50.8598H26.8854L23.2794 37.9373L19.5672 50.8598H16.0407Z" fill="white"/>
<path d="M100.082 45.8959C100.082 43.0963 98.3717 41.165 95.1766 40.4262L91.9418 39.6874C90.0592 39.2597 89.277 38.5209 89.277 37.2766C89.277 35.773 90.4702 34.8398 92.8168 34.8398C95.1501 34.8398 96.5289 35.6823 97.0592 37.6654L97.2846 38.5338H99.1141V34.1399C97.0592 33.103 94.8717 32.5586 92.6577 32.5586C88.3092 32.5586 85.5118 34.6454 85.5118 38.0024C85.5118 40.5947 87.1425 42.5 90.2713 43.187L93.4929 43.8999C95.5478 44.3535 96.3168 45.1701 96.3168 46.5181C96.3168 48.1642 95.0706 49.0845 92.5781 49.0845C89.7543 49.0845 88.3092 47.9698 87.6728 45.8311L87.3414 44.7424H85.5118V49.7196C87.8319 50.8602 90.0327 51.3786 93.0156 51.3786C97.2846 51.3657 100.082 49.227 100.082 45.8959ZM83.8016 44.7813H81.9721L81.7732 45.6756C81.2694 47.9439 80.5535 48.6567 78.883 48.6567H75.3433V35.2675H77.7562V33.0511H69.3906V35.2675H71.5516V48.6438H69.3906V50.8602H83.8149V44.7813" fill="white"/>
<path d="M96.5146 68.9164C96.5146 64.4188 94.6585 61.8006 91.2248 61.8006C87.7911 61.8006 85.935 64.4188 85.935 68.9164C85.935 73.44 87.7645 76.0323 91.2248 76.0323C94.685 76.0323 96.5146 73.44 96.5146 68.9164ZM100.691 68.9164C100.691 74.4639 96.7532 78.3524 91.238 78.3524C85.7494 78.3524 81.7854 74.4639 81.7854 68.9164C81.7854 63.3948 85.7759 59.4805 91.238 59.4805C96.7267 59.4805 100.691 63.3948 100.691 68.9164ZM72.1074 69.733C72.1074 70.2385 72.1869 70.5755 72.3858 70.9773H75.4085V75.4749C74.4142 75.8767 73.4199 76.0582 72.4123 76.0582C68.7532 76.0582 66.8441 73.44 66.8441 68.9164C66.8441 64.3929 68.7532 61.7746 72.2134 61.7746C74.5335 61.7746 75.8725 62.9153 76.668 64.8984L76.9464 65.6112H78.7759V61.0618C76.4824 59.973 74.4274 59.4805 72.0411 59.4805C66.4464 59.4805 62.6812 63.2134 62.6812 68.9423C62.6812 74.6843 66.3403 78.3524 72.0411 78.3524C74.3081 78.3524 76.6414 77.7172 79.1604 76.4729V68.5405H72.399C72.1869 68.9423 72.1074 69.2404 72.1074 69.733ZM56.649 65.1057C56.649 63.2523 55.5089 62.2542 53.2153 62.2542H50.2191V67.9702H53.2153C55.4824 67.9702 56.649 66.9333 56.649 65.1057ZM36.7361 70.2903L34.2437 63.5504L31.7513 70.2903H36.7361ZM61.5808 75.8249C61.7267 76.11 61.8062 76.4341 61.8062 76.8618C61.8062 77.2895 61.7267 77.6265 61.5808 77.8987C61.024 77.9765 60.3081 78.0283 59.5922 78.0283C57.1263 78.0283 55.9331 77.0173 55.6547 74.6454L55.5486 73.751C55.2437 71.1847 54.4085 70.1866 51.6111 70.1866H50.2191V75.6045H52.632V77.8209H36.6301V75.6045H38.7115L37.5449 72.429H30.9293L29.7627 75.6045H31.8971V77.8209H25.1623V75.6045H26.9388L33.1699 60.0119H36.5505L42.9009 75.6045H46.4142V62.2542H44.2532V60.0378H54.4748C58.1074 60.0378 60.4805 61.8395 60.4805 64.7428C60.4805 67.6203 58.1206 69.1368 55.8271 69.2404V69.3182C58.1471 69.4997 59.0884 70.7958 59.3138 72.8049L59.4199 73.751C59.5657 75.2286 59.8839 75.8897 61.0505 75.8897C61.2494 75.8767 61.435 75.8508 61.5808 75.8249ZM22.829 62.2542C24.5392 62.2542 25.1225 62.993 25.6793 65.1317L25.8649 65.8186H27.6945V60.0508H12.3555V62.2672H14.5165V75.6434H12.3555V77.8598H20.8536V75.6434H18.3081V70.4588H23.5449C23.7437 70.0311 23.8233 69.6941 23.8233 69.1886C23.8233 68.709 23.7437 68.398 23.5449 67.9702H18.3081V62.2801H22.829" fill="white"/>
</svg>